<svg id="visual" viewBox="0 0 900 600" width="900" height="600" xmlns="http://www.w3.org/2000/svg" xmlns:xlink="http://www.w3.org/1999/xlink" version="1.1"><path d="M0 55L9.3 52C18.7 49 37.3 43 56.2 40C75 37 94 37 112.8 42C131.7 47 150.3 57 169 57C187.7 57 206.3 47 225 41C243.7 35 262.3 33 281.2 34C300 35 319 39 337.8 39C356.7 39 375.3 35 394 33C412.7 31 431.3 31 450 32C468.7 33 487.3 35 506.2 35C525 35 544 33 562.8 34C581.7 35 600.3 39 619 42C637.7 45 656.3 47 675 45C693.7 43 712.3 37 731.2 36C750 35 769 39 787.8 43C806.7 47 825.3 51 844 52C862.7 53 881.3 51 890.7 50L900 49L900 0L890.7 0C881.3 0 862.7 0 844 0C825.3 0 806.7 0 787.8 0C769 0 750 0 731.2 0C712.3 0 693.7 0 675 0C656.3 0 637.7 0 619 0C600.3 0 581.7 0 562.8 0C544 0 525 0 506.2 0C487.3 0 468.7 0 450 0C431.3 0 412.7 0 394 0C375.3 0 356.7 0 337.8 0C319 0 300 0 281.2 0C262.3 0 243.7 0 225 0C206.3 0 187.7 0 169 0C150.3 0 131.7 0 112.8 0C94 0 75 0 56.2 0C37.3 0 18.7 0 9.3 0L0 0Z" fill="#86d4ff"></path><path d="M0 145L9.3 152C18.7 159 37.3 173 56.2 170C75 167 94 147 112.8 152C131.7 157 150.3 187 169 197C187.7 207 206.3 197 225 188C243.7 179 262.3 171 281.2 169C300 167 319 171 337.8 165C356.7 159 375.3 143 394 139C412.7 135 431.3 143 450 153C468.7 163 487.3 175 506.2 191C525 207 544 227 562.8 232C581.7 237 600.3 227 619 212C637.7 197 656.3 177 675 160C693.7 143 712.3 129 731.2 138C750 147 769 179 787.8 188C806.7 197 825.3 183 844 175C862.7 167 881.3 165 890.7 164L900 163L900 47L890.7 48C881.3 49 862.7 51 844 50C825.3 49 806.7 45 787.8 41C769 37 750 33 731.2 34C712.3 35 693.7 41 675 43C656.3 45 637.7 43 619 40C600.3 37 581.7 33 562.8 32C544 31 525 33 506.2 33C487.3 33 468.7 31 450 30C431.3 29 412.7 29 394 31C375.3 33 356.7 37 337.8 37C319 37 300 33 281.2 32C262.3 31 243.7 33 225 39C206.3 45 187.7 55 169 55C150.3 55 131.7 45 112.8 40C94 35 75 35 56.2 38C37.3 41 18.7 47 9.3 50L0 53Z" fill="#97daff"></path><path d="M0 295L9.3 296C18.7 297 37.3 299 56.2 298C75 297 94 293 112.8 300C131.7 307 150.3 325 169 322C187.7 319 206.3 295 225 289C243.7 283 262.3 295 281.2 304C300 313 319 319 337.8 319C356.7 319 375.3 313 394 307C412.7 301 431.3 295 450 293C468.7 291 487.3 293 506.2 304C525 315 544 335 562.8 346C581.7 357 600.3 359 619 352C637.7 345 656.3 329 675 314C693.7 299 712.3 285 731.2 285C750 285 769 299 787.8 311C806.7 323 825.3 333 844 335C862.7 337 881.3 331 890.7 328L900 325L900 161L890.7 162C881.3 163 862.7 165 844 173C825.3 181 806.7 195 787.8 186C769 177 750 145 731.2 136C712.3 127 693.7 141 675 158C656.3 175 637.7 195 619 210C600.3 225 581.7 235 562.8 230C544 225 525 205 506.2 189C487.3 173 468.7 161 450 151C431.3 141 412.7 133 394 137C375.3 141 356.7 157 337.8 163C319 169 300 165 281.2 167C262.3 169 243.7 177 225 186C206.3 195 187.7 205 169 195C150.3 185 131.7 155 112.8 150C94 145 75 165 56.2 168C37.3 171 18.7 157 9.3 150L0 143Z" fill="#ade2ff"></path><path d="M0 319L9.3 325C18.7 331 37.3 343 56.2 344C75 345 94 335 112.8 341C131.7 347 150.3 369 169 369C187.7 369 206.3 347 225 339C243.7 331 262.3 337 281.2 345C300 353 319 363 337.8 365C356.7 367 375.3 361 394 351C412.7 341 431.3 327 450 324C468.7 321 487.3 329 506.2 343C525 357 544 377 562.8 388C581.7 399 600.3 401 619 392C637.7 383 656.3 363 675 349C693.7 335 712.3 327 731.2 327C750 327 769 335 787.8 347C806.7 359 825.3 375 844 378C862.7 381 881.3 371 890.7 366L900 361L900 323L890.7 326C881.3 329 862.7 335 844 333C825.3 331 806.7 321 787.8 309C769 297 750 283 731.2 283C712.3 283 693.7 297 675 312C656.3 327 637.7 343 619 350C600.3 357 581.7 355 562.8 344C544 333 525 313 506.2 302C487.3 291 468.7 289 450 291C431.3 293 412.7 299 394 305C375.3 311 356.7 317 337.8 317C319 317 300 311 281.2 302C262.3 293 243.7 281 225 287C206.3 293 187.7 317 169 320C150.3 323 131.7 305 112.8 298C94 291 75 295 56.2 296C37.3 297 18.7 295 9.3 294L0 293Z" fill="#bfe8ff"></path><path d="M0 355L9.3 360C18.7 365 37.3 375 56.2 381C75 387 94 389 112.8 398C131.7 407 150.3 423 169 419C187.7 415 206.3 391 225 382C243.7 373 262.3 379 281.2 389C300 399 319 413 337.8 417C356.7 421 375.3 415 394 402C412.7 389 431.3 369 450 370C468.7 371 487.3 393 506.2 410C525 427 544 439 562.8 449C581.7 459 600.3 467 619 456C637.7 445 656.3 415 675 400C693.7 385 712.3 385 731.2 385C750 385 769 385 787.8 397C806.7 409 825.3 433 844 435C862.7 437 881.3 417 890.7 407L900 397L900 359L890.7 364C881.3 369 862.7 379 844 376C825.3 373 806.7 357 787.8 345C769 333 750 325 731.2 325C712.3 325 693.7 333 675 347C656.3 361 637.7 381 619 390C600.3 399 581.7 397 562.8 386C544 375 525 355 506.2 341C487.3 327 468.7 319 450 322C431.3 325 412.7 339 394 349C375.3 359 356.7 365 337.8 363C319 361 300 351 281.2 343C262.3 335 243.7 329 225 337C206.3 345 187.7 367 169 367C150.3 367 131.7 345 112.8 339C94 333 75 343 56.2 342C37.3 341 18.7 329 9.3 323L0 317Z" fill="#bfe8ff"></path><path d="M0 433L9.3 433C18.7 433 37.3 433 56.2 436C75 439 94 445 112.8 457C131.7 469 150.3 487 169 484C187.7 481 206.3 457 225 449C243.7 441 262.3 449 281.2 457C300 465 319 473 337.8 480C356.7 487 375.3 493 394 485C412.7 477 431.3 455 450 448C468.7 441 487.3 449 506.2 460C525 471 544 485 562.8 495C581.7 505 600.3 511 619 506C637.7 501 656.3 485 675 473C693.7 461 712.3 453 731.2 448C750 443 769 441 787.8 450C806.7 459 825.3 479 844 479C862.7 479 881.3 459 890.7 449L900 439L900 395L890.7 405C881.3 415 862.7 435 844 433C825.3 431 806.7 407 787.8 395C769 383 750 383 731.2 383C712.3 383 693.7 383 675 398C656.3 413 637.7 443 619 454C600.3 465 581.7 457 562.8 447C544 437 525 425 506.2 408C487.3 391 468.7 369 450 368C431.3 367 412.7 387 394 400C375.3 413 356.7 419 337.8 415C319 411 300 397 281.2 387C262.3 377 243.7 371 225 380C206.3 389 187.7 413 169 417C150.3 421 131.7 405 112.8 396C94 387 75 385 56.2 379C37.3 373 18.7 363 9.3 358L0 353Z" fill="#ade2ff"></path><path d="M0 481L9.3 482C18.7 483 37.3 485 56.2 489C75 493 94 499 112.8 508C131.7 517 150.3 529 169 526C187.7 523 206.3 505 225 496C243.7 487 262.3 487 281.2 490C300 493 319 499 337.8 508C356.7 517 375.3 529 394 524C412.7 519 431.3 497 450 490C468.7 483 487.3 491 506.2 503C525 515 544 531 562.8 538C581.7 545 600.3 543 619 536C637.7 529 656.3 517 675 507C693.7 497 712.3 489 731.2 487C750 485 769 489 787.8 498C806.7 507 825.3 521 844 517C862.7 513 881.3 491 890.7 480L900 469L900 437L890.7 447C881.3 457 862.7 477 844 477C825.3 477 806.7 457 787.8 448C769 439 750 441 731.2 446C712.3 451 693.7 459 675 471C656.3 483 637.7 499 619 504C600.3 509 581.7 503 562.8 493C544 483 525 469 506.2 458C487.3 447 468.7 439 450 446C431.3 453 412.7 475 394 483C375.3 491 356.7 485 337.8 478C319 471 300 463 281.2 455C262.3 447 243.7 439 225 447C206.3 455 187.7 479 169 482C150.3 485 131.7 467 112.8 455C94 443 75 437 56.2 434C37.3 431 18.7 431 9.3 431L0 431Z" fill="#97daff"></path><path d="M0 601L9.3 601C18.7 601 37.3 601 56.2 601C75 601 94 601 112.8 601C131.7 601 150.3 601 169 601C187.7 601 206.3 601 225 601C243.7 601 262.3 601 281.2 601C300 601 319 601 337.8 601C356.7 601 375.3 601 394 601C412.7 601 431.3 601 450 601C468.7 601 487.3 601 506.2 601C525 601 544 601 562.8 601C581.7 601 600.3 601 619 601C637.7 601 656.3 601 675 601C693.7 601 712.3 601 731.2 601C750 601 769 601 787.8 601C806.7 601 825.3 601 844 601C862.7 601 881.3 601 890.7 601L900 601L900 467L890.7 478C881.3 489 862.7 511 844 515C825.3 519 806.7 505 787.8 496C769 487 750 483 731.2 485C712.3 487 693.7 495 675 505C656.3 515 637.7 527 619 534C600.3 541 581.7 543 562.8 536C544 529 525 513 506.2 501C487.3 489 468.7 481 450 488C431.3 495 412.7 517 394 522C375.3 527 356.7 515 337.8 506C319 497 300 491 281.2 488C262.3 485 243.7 485 225 494C206.3 503 187.7 521 169 524C150.3 527 131.7 515 112.8 506C94 497 75 491 56.2 487C37.3 483 18.7 481 9.3 480L0 479Z" fill="#86d4ff"></path></svg>